<svg xmlns="http://www.w3.org/2000/svg" width="255" height="155" viewBox="0 0 255 155">
  <path d="M154.659,0.15 L240.394,66.765 L254.727,116.99 L177.856,154.494 L6.166,121.334 L0.176,60.348 L154.659,0.15 Z M188.479,117.827 L188.479,128.129 L235.32,117.827 L188.479,117.827 Z M117.817,117.827 L69.847,117.827 L117.817,128.377 L117.817,117.827 Z M222.938,85.289 C222.604,81.969 219.617,83.207 219.617,83.207 C219.617,83.207 214.8,86.932 210.565,86.519 C206.334,86.104 207.661,76.649 207.661,76.649 C207.661,76.649 208.572,67.986 206.081,67.257 C203.591,66.533 200.518,69.518 200.518,69.518 C200.518,69.518 196.7,73.745 194.871,79.132 L194.373,79.3 C194.373,79.3 194.956,69.848 194.293,67.69 C193.793,66.614 189.226,66.697 188.479,68.604 C187.732,70.511 184.077,83.777 183.828,89.332 C183.828,89.332 176.687,95.385 170.46,96.378 C164.235,97.375 162.738,93.476 162.738,93.476 C162.738,93.476 179.676,88.75 179.095,75.236 C178.514,61.722 165.437,66.72 163.955,67.831 C162.525,68.907 154.878,73.509 152.65,86.257 C152.574,86.691 152.441,88.586 152.441,88.586 C152.441,88.586 145.882,92.98 142.229,94.141 C142.229,94.141 152.441,76.975 139.987,69.185 C134.339,65.785 129.857,72.915 129.857,72.915 C129.857,72.915 146.712,54.176 142.975,38.343 C141.199,30.803 137.42,29.991 133.954,31.21 C128.692,33.285 126.701,36.353 126.701,36.353 C126.701,36.353 119.892,46.219 118.314,60.895 C116.736,75.568 114.411,93.312 114.411,93.312 C114.411,93.312 111.173,96.463 108.183,96.625 C105.194,96.791 106.523,87.754 106.523,87.754 C106.523,87.754 108.848,73.992 108.683,71.673 C108.516,69.349 108.348,68.106 105.609,67.276 C102.87,66.448 99.88,69.931 99.88,69.931 C99.88,69.931 91.993,81.866 91.328,83.694 L90.912,84.441 L90.498,83.944 C90.498,83.944 96.06,67.691 90.748,67.442 C85.432,67.195 81.945,73.247 81.945,73.247 C81.945,73.247 75.883,83.362 75.633,84.525 L75.22,84.025 C75.22,84.025 77.709,72.252 77.211,69.349 C76.714,66.448 73.974,67.029 73.974,67.029 C73.974,67.029 70.485,66.614 69.572,68.854 C68.66,71.09 65.338,85.932 64.922,90.657 C64.922,90.657 56.205,96.878 50.474,96.958 C44.745,97.041 45.327,93.329 45.327,93.329 C45.327,93.329 66.334,86.152 60.605,71.973 C58.031,68.325 55.04,67.179 50.807,67.261 C46.572,67.345 41.358,69.921 37.953,77.551 C36.33,81.193 35.777,84.642 35.446,87.256 C35.446,87.256 31.726,88.002 29.733,86.346 C27.741,84.69 26.694,86.346 26.694,86.346 C26.694,86.346 23.262,90.026 26.668,91.355 C30.073,92.682 35.376,92.621 35.376,92.621 L35.373,92.621 C35.863,96.151 37.281,99.563 41.429,102.709 C47.654,107.433 59.611,102.606 59.611,102.606 L64.509,100.033 C64.509,100.033 64.673,104.605 68.245,105.262 C71.815,105.916 73.31,105.294 79.539,90.206 C83.19,82.492 83.439,82.926 83.439,82.926 L83.856,82.856 C83.856,82.856 81.031,97.617 82.111,101.597 C83.191,105.577 87.921,105.164 87.921,105.164 C87.921,105.164 90.498,105.168 92.571,97.872 C94.649,90.576 98.634,82.03 98.634,82.03 L99.133,82.03 C99.133,82.03 97.39,97.626 100.046,102.43 C102.704,107.238 109.596,104.293 109.596,104.293 C109.596,104.293 114.411,101.996 115.159,101.248 C115.159,101.248 120.875,106.164 128.938,105.288 C146.962,101.746 153.371,96.995 153.371,96.995 C153.371,96.995 156.47,104.845 166.058,105.569 C177.022,106.396 182.998,99.524 182.998,99.524 C182.998,99.524 182.916,104.004 186.735,105.581 C190.556,107.155 193.128,98.378 193.128,98.378 L199.521,80.853 L200.104,80.853 C200.104,80.853 200.436,92.227 206.748,94.051 C213.055,95.876 221.278,89.739 221.278,89.739 C221.278,89.739 223.271,88.604 222.938,85.289 Z M138.074,121.368 L138.074,120.221 C137.692,116.548 135.68,114.523 132.037,114.139 C128.342,114.523 126.356,116.548 126.082,120.221 L126.082,129.057 C126.373,132.73 128.359,134.713 132.037,135.004 C135.642,134.677 137.654,132.695 138.074,129.057 L138.074,127.886 C137.946,127.213 137.536,126.832 136.846,126.739 L135.507,126.739 C134.778,126.814 134.368,127.196 134.278,127.887 L134.278,129.057 C134.149,130.477 133.403,131.25 132.038,131.377 C130.599,131.25 129.816,130.477 129.688,129.057 L129.688,120.305 C129.816,118.94 130.599,118.175 132.038,118.013 C133.403,118.175 134.149,118.94 134.278,120.305 L134.278,121.394 C134.368,122.085 134.759,122.469 135.452,122.539 L136.899,122.539 C137.555,122.431 137.947,122.04 138.074,121.368 Z M146.682,114.14 L146.683,114.14 C143.005,114.503 141.011,116.512 140.701,120.168 L140.701,129.058 C141.048,132.678 143.042,134.658 146.683,135.003 C150.326,134.678 152.339,132.694 152.72,129.058 L152.72,120.168 C152.356,116.512 150.344,114.503 146.682,114.14 Z M167.427,133.804 L167.427,133.667 C167.427804,132.039632 167.436804,130.412278 167.454,128.785 L167.454,115.422 C167.327,114.785 166.945,114.438 166.308,114.385 L164.888,114.385 C164.195,114.477 163.813,114.858 163.739,115.531 L163.739,125.051 C162.374,121.831 161.035,118.596 159.724,115.339 C159.379,114.65 158.842,114.33 158.114,114.385 L156.392,114.385 C155.809,114.33 155.499,114.575 155.463,115.123 L155.463,133.722 C155.536,134.358 155.9,134.704 156.555,134.759 L157.949,134.759 C158.642,134.704 159.023,134.321 159.097,133.614 L159.097,124.204 C160.426,127.404 161.773,130.604 163.137,133.804 C163.43,134.478 163.949,134.796 164.697,134.759 L166.444,134.759 C167.081,134.759 167.409,134.441 167.427,133.804 Z M181.022,114.357 L181.022,114.355 L171.243,114.355 C170.623,114.483 170.304,114.868 170.287,115.505 L170.287,133.804 C170.359,134.441 170.724,134.779 171.379,134.814 L172.771,134.814 C173.465,134.742 173.838,134.357 173.891,133.667 L173.891,127.095 C173.928,126.733 174.129,126.521 174.494,126.468 L178.59,126.468 C179.282,126.449 179.666,126.086 179.739,125.376 L179.739,123.902 C179.666,123.25 179.29,122.877 178.619,122.787 L174.494,122.787 C174.129,122.766 173.928,122.577 173.891,122.213 L173.891,118.694 C173.928,118.332 174.129,118.129 174.494,118.094 L180.995,118.094 C181.687,118.059 182.086,117.676 182.197,116.949 L182.197,115.531 C182.086,114.859 181.695,114.468 181.022,114.357 Z M77.642,53.357 L73.222,53.357 C74.6725597,51.401557 76.1105891,49.4368501 77.536,47.463 C77.9031923,47.0401135 78.1902176,46.553831 78.383,46.028 C78.425,45.648 78.453,45.261 78.467,44.866 C78.199,42.036 76.648,40.473 73.813,40.176 C70.951,40.459 69.407,42.022 69.181,44.866 L69.181,45.754 C69.196,46.289 69.478,46.59 70.028,46.662 L71.106,46.662 C71.642,46.605 71.946,46.309 72.016,45.775 L72.016,44.972 C72.1,43.86 72.7,43.255 73.813,43.155 C74.773,43.226 75.359,43.74 75.569,44.697 C75.555,44.993 75.548,45.295 75.548,45.605 C73.5768954,48.3841014 71.531491,51.1097512 69.414,53.779 C69.328,53.905 69.288,54.046 69.288,54.202 L69.288,55.3 C69.343,55.835 69.639,56.13 70.175,56.187 L77.621,56.187 C78.158,56.13 78.474,55.835 78.574,55.3 L78.574,54.202 C78.475,53.709 78.163,53.427 77.642,53.357 Z M85.342,40.178 C82.493,40.473 80.942,42.036 80.689,44.866 L80.689,51.73 C80.942,54.546 82.493,56.081 85.342,56.335 C88.177,56.095 89.734,54.56 90.017,51.73 L90.017,44.866 C89.734,42.036 88.176,40.473 85.342,40.178 Z M98.414,41.106 C98.329,40.586 98.034,40.283 97.526,40.199 L96.468,40.199 C96.2342776,40.1911919 96.0066406,40.2743601 95.833,40.431 C95.630061,40.532949 95.4327739,40.6457799 95.242,40.769 C94.734,41.106 94.218,41.43 93.698,41.741 C93.443,41.909 93.19,42.071 92.936,42.227 C92.399,42.494 92.16,42.909 92.216,43.472 L92.216,44.824 C92.216,45.232 92.408,45.486 92.788,45.584 C93.0366973,45.5515754 93.2710995,45.4492845 93.464,45.289 C94.169,44.881 94.861,44.458 95.537,44.021 L95.537,55.363 C95.608,55.857 95.897,56.13 96.405,56.187 L97.526,56.187 C98.034,56.116 98.315,55.82 98.372,55.3 L98.372,48.9 C98.37186,46.5906026 98.3858603,44.281226 98.414,41.972 L98.414,41.106 Z M110.323,44.845 C110.056,42.029 108.511,40.466 105.691,40.156 C102.828,40.465 101.285,42.029 101.058,44.845 L101.058,44.866 C101.058,46.246 101.488,47.457 102.348,48.499 C101.488,49.4 101.058,50.478 101.058,51.73 C101.298,54.547 102.843,56.089 105.691,56.356 C108.497,56.089 110.041,54.547 110.323,51.73 C110.295,50.478 109.859,49.4 109.013,48.499 C109.843,47.457 110.281,46.246 110.323,44.865 L110.323,44.845 Z M161.824,86.928 C161.824,86.928 160.912,83.694 164.315,77.476 C167.719,71.256 170.379,74.656 170.379,74.656 C170.379,74.656 173.283,77.807 169.963,82.535 C166.641,87.257 161.823,86.928 161.823,86.928 L161.824,86.928 Z M135.669,91.403 C131.765,101.604 122.3,97.456 122.3,97.456 C122.3,97.456 121.22,93.808 124.293,83.61 C127.365,73.414 134.589,77.39 134.589,77.39 C134.589,77.39 139.571,81.207 135.669,91.403 Z M128.61,48.705 C128.61,48.705 134.508,33.367 135.919,40.832 C137.327,48.292 123.545,70.512 123.545,70.512 C123.711,65.537 128.61,48.705 128.61,48.705 Z M44.33,86.928 C44.579,77.061 51.055,72.75 53.298,74.907 C55.541,77.061 54.708,81.704 50.474,84.606 C46.241,87.508 44.329,86.928 44.329,86.928 L44.33,86.928 Z M149.033,129.084 L149.033,120.277 C148.885,118.857 148.103,118.084 146.683,117.957 C145.263,118.103 144.489,118.877 144.362,120.277 L144.362,129.084 C144.489,130.503 145.264,131.26 146.682,131.352 C148.104,131.26 148.885,130.503 149.032,129.084 L149.033,129.084 Z M87.161,51.751 L87.161,44.993 C87.048,43.881 86.443,43.268 85.341,43.155 C84.228,43.282 83.621,43.894 83.523,44.993 L83.523,51.751 C83.635,52.849 84.243,53.448 85.342,53.546 C86.442,53.448 87.048,52.849 87.162,51.751 L87.161,51.751 Z M104.02,51.73 L104.021,51.73 C104.105,50.703 104.661,50.104 105.691,49.936 C106.721,50.09 107.271,50.689 107.341,51.73 C107.242,52.759 106.691,53.349 105.691,53.505 C104.661,53.35 104.105,52.759 104.02,51.73 Z M105.691,43.05 C106.691,43.218 107.242,43.817 107.341,44.845 C107.271,45.901 106.721,46.499 105.691,46.641 C104.661,46.485 104.105,45.887 104.021,44.845 C104.105,43.832 104.661,43.233 105.691,43.05 Z"/>
</svg>
